<svg width="60" height="60" viewBox="0 0 60 60" fill="none" xmlns="http://www.w3.org/2000/svg">
<path d="M49.6879 28.1246C52.2765 28.1246 54.375 26.0261 54.375 23.4375C54.375 20.8489 52.2763 18.7504 49.6877 18.7504C47.0989 18.7504 45 20.8491 45 23.4379V28.1246H49.6879ZM36.5625 28.1246C39.1513 28.1246 41.25 26.0259 41.25 23.4371V10.3129C41.25 7.72406 39.1513 5.6254 36.5625 5.6254C33.9737 5.6254 31.875 7.72406 31.875 10.3129V23.4371C31.875 26.0259 33.9737 28.1246 36.5625 28.1246Z" fill="#2EB67D"/>
<path d="M10.3121 31.8754C7.72349 31.8754 5.625 33.9739 5.625 36.5625C5.625 39.1511 7.72369 41.2496 10.3123 41.2496C12.9011 41.2496 15 39.1509 15 36.5621V31.8754H10.3121ZM23.4375 31.8754C20.8487 31.8754 18.75 33.9741 18.75 36.5629V49.6871C18.75 52.2759 20.8487 54.3746 23.4375 54.3746C26.0263 54.3746 28.125 52.2759 28.125 49.6871V36.5629C28.125 33.9741 26.0263 31.8754 23.4375 31.8754Z" fill="#E01E5A"/>
<path d="M31.8753 49.6879C31.8753 52.2765 33.9738 54.375 36.5624 54.375C39.151 54.375 41.2495 52.2763 41.2495 49.6877C41.2495 47.0989 39.1508 45 36.562 45L31.8753 45L31.8753 49.6879ZM31.8753 36.5625C31.8753 39.1513 33.974 41.25 36.5628 41.25L49.687 41.25C52.2758 41.25 54.3745 39.1513 54.3745 36.5625C54.3745 33.9737 52.2758 31.875 49.687 31.875L36.5628 31.875C33.974 31.875 31.8753 33.9737 31.8753 36.5625Z" fill="#ECB22E"/>
<path d="M28.1244 10.3121C28.1244 7.72349 26.026 5.62501 23.4373 5.62501C20.8487 5.62501 18.7502 7.72369 18.7502 10.3123C18.7502 12.9011 20.8489 15 23.4377 15L28.1244 15L28.1244 10.3121ZM28.1244 23.4375C28.1244 20.8487 26.0258 18.75 23.4369 18.75L10.3127 18.75C7.72391 18.75 5.62524 20.8487 5.62524 23.4375C5.62524 26.0263 7.72391 28.125 10.3127 28.125L23.4369 28.125C26.0258 28.125 28.1244 26.0263 28.1244 23.4375Z" fill="#36C5F0"/>
</svg>
